<svg xmlns="http://www.w3.org/2000/svg" viewBox="0 0 256 256" width="256" height="256">
  <!-- VoxFlow icon — MASTER (48..256px). Transparent bg, reads on light & dark. -->
  <!-- speech bubble -->
  <path d="M58 44
           H198 a34 34 0 0 1 34 34
           V136 a34 34 0 0 1 -34 34
           H118 l-40 34 v-34
           H58 a34 34 0 0 1 -34 -34
           V78 a34 34 0 0 1 34 -34 Z" fill="#2FCB7E"/>
  <!-- text lines -->
  <rect x="56" y="72"  width="120" height="14" rx="7" fill="#ffffff"/>
  <rect x="56" y="98"  width="140" height="14" rx="7" fill="#ffffff"/>
  <rect x="56" y="124" width="74"  height="14" rx="7" fill="#ffffff"/>
  <!-- blinking cursor -->
  <rect x="140" y="120" width="13" height="22" rx="3" fill="#3B82F6"/>
</svg>
